<svg width="24" height="24" viewBox="0 0 24 24" fill="none" xmlns="http://www.w3.org/2000/svg" id="people">
  <path
    d="M16 11C17.66 11 18.99 9.66 18.99 8C18.99 6.34 17.66 5 16 5C14.34 5 13 6.34 13 8C13 9.66 14.34 11 16 11ZM7.99998 11C9.65998 11 10.99 9.66 10.99 8C10.99 6.34 9.65998 5 7.99998 5C6.33998 5 4.99998 6.34 4.99998 8C4.99998 9.66 6.33998 11 7.99998 11ZM7.99998 13C5.66998 13 0.999985 14.17 0.999985 16.5V19H15V16.5C15 14.17 10.33 13 7.99998 13ZM16 13C15.71 13 15.38 13.02 15.03 13.05C16.19 13.89 17 15.02 17 16.5V19H23V16.5C23 14.17 18.33 13 16 13Z"
    fill="currentColor"/>
</svg>
